<mxfile host="app.diagrams.net" agent="Mozilla/5.0 (Windows NT 10.0; Win64; x64) AppleWebKit/537.36 (KHTML, like Gecko) Chrome/137.0.0.0 Safari/537.36" version="27.1.6">
  <diagram name="Distributed Web Infrastructure" id="g1KsGUoOlQ8iizKNAdu7">
    <mxGraphModel dx="724" dy="465" grid="1" gridSize="10" guides="1" tooltips="1" connect="1" arrows="1" fold="1" page="1" pageScale="1" pageWidth="827" pageHeight="1169" math="0" shadow="0">
      <root>
        <mxCell id="0" />
        <mxCell id="1" parent="0" />
        <mxCell id="PW0q88JLM-iCOLWNGy41-38" style="edgeStyle=orthogonalEdgeStyle;rounded=0;orthogonalLoop=1;jettySize=auto;html=1;entryX=0.5;entryY=0;entryDx=0;entryDy=0;" edge="1" parent="1" source="PW0q88JLM-iCOLWNGy41-1" target="PW0q88JLM-iCOLWNGy41-2">
          <mxGeometry relative="1" as="geometry" />
        </mxCell>
        <mxCell id="PW0q88JLM-iCOLWNGy41-1" value="&lt;font style=&quot;font-size: 18px;&quot;&gt;&lt;b&gt;USER&lt;/b&gt;&lt;/font&gt;" style="rounded=0;whiteSpace=wrap;html=1;" vertex="1" parent="1">
          <mxGeometry x="234" y="30" width="120" height="60" as="geometry" />
        </mxCell>
        <mxCell id="PW0q88JLM-iCOLWNGy41-37" style="edgeStyle=orthogonalEdgeStyle;rounded=0;orthogonalLoop=1;jettySize=auto;html=1;entryX=0.5;entryY=0;entryDx=0;entryDy=0;" edge="1" parent="1" source="PW0q88JLM-iCOLWNGy41-2" target="PW0q88JLM-iCOLWNGy41-14">
          <mxGeometry relative="1" as="geometry" />
        </mxCell>
        <mxCell id="PW0q88JLM-iCOLWNGy41-2" value="&lt;font style=&quot;font-size: 18px;&quot;&gt;&lt;b&gt;HAProxy Load Balancer&lt;/b&gt;&lt;/font&gt;" style="whiteSpace=wrap;html=1;" vertex="1" parent="1">
          <mxGeometry x="219" y="240" width="150" height="80" as="geometry" />
        </mxCell>
        <mxCell id="PW0q88JLM-iCOLWNGy41-6" value="&lt;font style=&quot;font-size: 14px;&quot;&gt;&lt;b&gt;(Public IP: 8.8.8.8)&lt;/b&gt;&lt;/font&gt;" style="text;html=1;align=center;verticalAlign=middle;resizable=0;points=[];autosize=1;strokeColor=none;fillColor=none;" vertex="1" parent="1">
          <mxGeometry x="390" y="260" width="140" height="30" as="geometry" />
        </mxCell>
        <mxCell id="PW0q88JLM-iCOLWNGy41-35" style="edgeStyle=orthogonalEdgeStyle;rounded=0;orthogonalLoop=1;jettySize=auto;html=1;exitX=0.5;exitY=1;exitDx=0;exitDy=0;entryX=0;entryY=0.75;entryDx=0;entryDy=0;" edge="1" parent="1" source="PW0q88JLM-iCOLWNGy41-11" target="PW0q88JLM-iCOLWNGy41-14">
          <mxGeometry relative="1" as="geometry" />
        </mxCell>
        <mxCell id="PW0q88JLM-iCOLWNGy41-11" value="&lt;font style=&quot;font-size: 14px;&quot;&gt;&lt;b&gt;Nginx Web&lt;/b&gt;&lt;/font&gt;&lt;div&gt;&lt;font style=&quot;&quot;&gt;&lt;span style=&quot;font-size: 14px;&quot;&gt;&lt;b&gt;Server&amp;nbsp;&amp;nbsp;&lt;/b&gt;&lt;/span&gt;&lt;/font&gt;&lt;/div&gt;&lt;div&gt;&lt;font style=&quot;&quot;&gt;&lt;span style=&quot;font-size: 14px;&quot;&gt;&lt;b&gt;(Server #1)&lt;/b&gt;&lt;/span&gt;&lt;/font&gt;&lt;/div&gt;" style="rounded=0;whiteSpace=wrap;html=1;" vertex="1" parent="1">
          <mxGeometry x="99" y="530" width="120" height="85" as="geometry" />
        </mxCell>
        <mxCell id="PW0q88JLM-iCOLWNGy41-34" style="edgeStyle=orthogonalEdgeStyle;rounded=0;orthogonalLoop=1;jettySize=auto;html=1;exitX=0.5;exitY=1;exitDx=0;exitDy=0;entryX=1;entryY=0.75;entryDx=0;entryDy=0;" edge="1" parent="1" source="PW0q88JLM-iCOLWNGy41-13" target="PW0q88JLM-iCOLWNGy41-14">
          <mxGeometry relative="1" as="geometry" />
        </mxCell>
        <mxCell id="PW0q88JLM-iCOLWNGy41-13" value="&lt;span style=&quot;font-size: 14px;&quot;&gt;&lt;b&gt;&amp;nbsp;App Server&amp;nbsp;&amp;nbsp;&lt;/b&gt;&lt;/span&gt;&lt;div&gt;&lt;span style=&quot;font-size: 14px;&quot;&gt;&lt;b&gt;(Gunicorn + App)&lt;/b&gt;&lt;/span&gt;&lt;/div&gt;&lt;div&gt;&lt;span style=&quot;font-size: 14px;&quot;&gt;&lt;b&gt;(Server #2)&amp;nbsp;&amp;nbsp;&lt;/b&gt;&lt;/span&gt;&lt;/div&gt;" style="rounded=0;whiteSpace=wrap;html=1;" vertex="1" parent="1">
          <mxGeometry x="430" y="580" width="120" height="85" as="geometry" />
        </mxCell>
        <mxCell id="PW0q88JLM-iCOLWNGy41-36" style="edgeStyle=orthogonalEdgeStyle;rounded=0;orthogonalLoop=1;jettySize=auto;html=1;" edge="1" parent="1" source="PW0q88JLM-iCOLWNGy41-14" target="PW0q88JLM-iCOLWNGy41-16">
          <mxGeometry relative="1" as="geometry" />
        </mxCell>
        <mxCell id="PW0q88JLM-iCOLWNGy41-14" value="&lt;span style=&quot;font-size: 14px;&quot;&gt;&lt;b&gt;MySQL Primary (Master)&lt;/b&gt;&lt;/span&gt;&lt;div&gt;&lt;span style=&quot;font-size: 14px;&quot;&gt;&lt;b&gt;&amp;nbsp;(Server #3)&amp;nbsp;&amp;nbsp;&lt;/b&gt;&lt;/span&gt;&lt;/div&gt;" style="rounded=0;whiteSpace=wrap;html=1;" vertex="1" parent="1">
          <mxGeometry x="219" y="720" width="200" height="85" as="geometry" />
        </mxCell>
        <mxCell id="PW0q88JLM-iCOLWNGy41-16" value="&lt;span style=&quot;font-size: 14px;&quot;&gt;&lt;b&gt;MySQL Replica (Optional)&lt;/b&gt;&lt;/span&gt;" style="rounded=0;whiteSpace=wrap;html=1;" vertex="1" parent="1">
          <mxGeometry x="200" y="890" width="200" height="85" as="geometry" />
        </mxCell>
        <mxCell id="PW0q88JLM-iCOLWNGy41-17" value="not accessed by app" style="text;html=1;align=center;verticalAlign=middle;resizable=0;points=[];autosize=1;strokeColor=none;fillColor=none;" vertex="1" parent="1">
          <mxGeometry x="414" y="917.5" width="130" height="30" as="geometry" />
        </mxCell>
        <mxCell id="PW0q88JLM-iCOLWNGy41-18" value="" style="edgeStyle=elbowEdgeStyle;rounded=0;elbow=vertical;html=1;labelBackgroundColor=#ffffff;jettySize=auto;orthogonalLoop=1;strokeWidth=1;fontSize=14;endArrow=none;endFill=0;entryX=0.327;entryY=1.025;entryDx=0;entryDy=0;entryPerimeter=0;" edge="1" parent="1" target="PW0q88JLM-iCOLWNGy41-2">
          <mxGeometry width="60" height="60" relative="1" as="geometry">
            <mxPoint x="150" y="540" as="sourcePoint" />
            <mxPoint x="240" y="410" as="targetPoint" />
          </mxGeometry>
        </mxCell>
        <mxCell id="PW0q88JLM-iCOLWNGy41-19" value="Text" style="edgeLabel;html=1;align=center;verticalAlign=middle;resizable=0;points=[];" vertex="1" connectable="0" parent="PW0q88JLM-iCOLWNGy41-18">
          <mxGeometry x="-0.9444" relative="1" as="geometry">
            <mxPoint as="offset" />
          </mxGeometry>
        </mxCell>
      </root>
    </mxGraphModel>
  </diagram>
</mxfile>
